<svg xmlns="http://www.w3.org/2000/svg" xmlns:xlink="http://www.w3.org/1999/xlink" width="112.153" height="115.212" viewBox="0 0 112.153 115.212"><defs><clipPath id="a"><rect width="112.153" height="115.212" transform="translate(-6 -6)" fill="#fff" stroke="#fff" stroke-width="2"/></clipPath></defs><g transform="translate(6 6)"><g clip-path="url(#a)"><path d="M44.815,153.45A45.065,45.065,0,0,1,42.463,63.4a1.519,1.519,0,0,1,1.594,1.67,10.676,10.676,0,0,0,0,1.214A26.132,26.132,0,0,0,45.392,72.5c.38,1.305.789,2.656,1.063,4.037,1,4.872,0,9.107-2.9,11.475-2.413,1.988-5.449,2.231-8.394,2.474-2.7.213-5.267.425-6.861,2.019s-1.761,3.78-2.079,6.223a18.214,18.214,0,0,1-1.518,6.238c-2.277,4.371-8.136,6.557-13.357,4.948a16.241,16.241,0,0,1-8.2-6.238,43.973,43.973,0,0,0-.273,4.721,42.03,42.03,0,1,0,78.5-20.734,1.523,1.523,0,0,1,2.641-1.518,45.065,45.065,0,0,1-39.206,67.3ZM3.833,99.1a14.937,14.937,0,0,0,8.318,7.923c3.795,1.169,8.181-.38,9.775-3.461a15.983,15.983,0,0,0,1.26-5.221c.364-2.838.744-5.768,2.93-7.969s5.631-2.656,8.773-2.914c2.6-.2,5.039-.41,6.709-1.776,2.869-2.368,2.14-7.119,1.867-8.515s-.637-2.5-1.017-3.795a28.96,28.96,0,0,1-1.442-6.815A41.969,41.969,0,0,0,3.833,99.1Z" transform="translate(0 -50.238)" fill="#fff" stroke="#fff" stroke-width="2"/><path d="M211.317,291.1a1.517,1.517,0,0,1-.713-.182A50.088,50.088,0,0,1,192.389,274.5a18.625,18.625,0,0,1-3.127-7.24,9.108,9.108,0,0,1,2.55-8.136c2.171-1.943,5.3-2.565,9.578-1.913l1.761.288a16.24,16.24,0,0,0,6.345.334c2.353-.531,4.554-2.262,7.043-5.4l1.366-1.821a29.155,29.155,0,0,1,5.464-6.071,15.8,15.8,0,0,1,15.012-2,1.518,1.518,0,0,1-.813,2.925,1.535,1.535,0,0,1-.234-.086,12.947,12.947,0,0,0-12.143,1.518,26.24,26.24,0,0,0-4.872,5.479l-1.412,1.882c-1.806,2.383-4.705,5.555-8.743,6.481a18.79,18.79,0,0,1-7.589-.3l-1.7-.273c-3.263-.5-5.646-.106-7.073,1.169a6.071,6.071,0,0,0-1.518,5.4,15.633,15.633,0,0,0,2.732,6.071,47.051,47.051,0,0,0,17.03,15.452,1.518,1.518,0,0,1-.729,2.854Z" transform="translate(-149.866 -191.368)" fill="#fff" stroke="#fff" stroke-width="2"/><path d="M68.954,342.312a11.445,11.445,0,0,1-8.379-3.036c-4.554-4.645-4.721-7.969-4.037-9.927a6.739,6.739,0,0,1,5.92-4.1,7.376,7.376,0,0,1,7.149,2.762,5.267,5.267,0,0,0,2.747,1.821,7,7,0,0,1,5.024,5.237,5.92,5.92,0,0,1-.213,4.053,6.147,6.147,0,0,1-4.994,3.036A23.714,23.714,0,0,1,68.954,342.312Zm-5.388-14.04h-.774a3.931,3.931,0,0,0-3.385,2.095c-.562,1.609.653,4.083,3.339,6.8,2.368,2.459,6.648,2.231,8.986,1.9.835-.122,2.277-.456,2.717-1.321a3.231,3.231,0,0,0,0-2c-.425-1.821-1.4-2.292-3.2-3.036a7.924,7.924,0,0,1-4.174-3.036A4.114,4.114,0,0,0,63.566,328.272Z" transform="translate(-44.569 -257.663)" fill="#fff" stroke="#fff" stroke-width="2"/><path d="M283.361,78a21.493,21.493,0,0,1-17.212-7.468c-6.937-8.53-4.356-19.6-4.235-20.066a1.587,1.587,0,0,1,2.717-.622c2.55,3.036,7.119,3.764,11.551,4.553,4.72.8,9.107,1.518,11.566,4.918,4.174,5.859,3.688,16.1,3.658,16.529a1.518,1.518,0,0,1-1.123,1.4A29.651,29.651,0,0,1,283.361,78ZM264.51,53.824a20.929,20.929,0,0,0,4.007,14.8c6.177,7.589,16.438,6.5,19.732,5.889,0-2.7-.3-9.5-3.126-13.448-1.655-2.322-5.525-3.036-9.608-3.688-3.688-.653-7.847-1.366-11-3.552" transform="translate(-207.111 -39.073)" fill="#fff" stroke="#fff" stroke-width="2"/><path d="M325.1,38.2a1.269,1.269,0,0,1-.41,0,32.407,32.407,0,0,1-18.579-13.661,1.518,1.518,0,0,1,2.562-1.628q.034.054.064.111a29.931,29.931,0,0,0,16.332,12.143c2.246-.835,12.978-5.312,14.268-15.786.789-6.512-2.383-11.93-4.508-14.738-1.518,3.537-4.554,6.36-7.468,8.895-2.5,2.262-4.872,4.387-5.783,6.618a1.518,1.518,0,1,1-2.808-1.138c1.169-2.884,3.795-5.237,6.572-7.726,3.339-3.036,6.785-6.071,7.346-9.987a1.5,1.5,0,0,1,2.535-.881c.38.334,8.455,8.333,7.195,19.307-1.67,13.661-16.165,18.214-16.788,18.442A1.52,1.52,0,0,1,325.1,38.2Z" transform="translate(-242.403 0)" fill="#fff" stroke="#fff" stroke-width="2"/></g></g></svg>