<svg xmlns="http://www.w3.org/2000/svg" xmlns:xlink="http://www.w3.org/1999/xlink" width="106.216" height="106.25" viewBox="0 0 106.216 106.25"><defs><clipPath id="a"><rect width="106.216" height="106.25" fill="#fff"/></clipPath></defs><g clip-path="url(#a)"><path d="M47.9,163.086H41.653V144.261a2.082,2.082,0,0,0-.539-1.4L24.466,124.489a7.877,7.877,0,0,0-7.706-2.324v-20.9A10.956,10.956,0,0,0,5.816,90.324,5.823,5.823,0,0,0,0,96.14v48.121a2.081,2.081,0,0,0,.714,1.57L12.56,156.154a11.952,11.952,0,0,1,3.916,6.932H10.414a2.083,2.083,0,0,0-2.083,2.083v10.579a2.083,2.083,0,0,0,2.083,2.083H47.9a2.083,2.083,0,0,0,2.083-2.083V165.169A2.083,2.083,0,0,0,47.9,163.086ZM15.3,153.014l-11.131-9.7V96.14a1.653,1.653,0,0,1,1.651-1.651,6.786,6.786,0,0,1,6.779,6.778v23.515a7.78,7.78,0,0,0,.511,10.423l9.49,9.49a2.083,2.083,0,1,0,2.946-2.945l-9.49-9.49a3.608,3.608,0,0,1,0-5.1,3.709,3.709,0,0,1,5.33.123l16.107,17.777v18.022h-16.8a16.117,16.117,0,0,0-5.4-10.072m30.522,20.651H12.5v-6.413H45.819Z" transform="translate(0 -71.58)" fill="#fff"/><path d="M315.139,90.324A10.956,10.956,0,0,0,304.2,101.268v20.9a7.878,7.878,0,0,0-7.708,2.326l-16.646,18.372a2.082,2.082,0,0,0-.539,1.4v18.825h-6.248a2.083,2.083,0,0,0-2.083,2.083v10.579a2.083,2.083,0,0,0,2.083,2.083h37.488a2.083,2.083,0,0,0,2.083-2.083V165.169a2.083,2.083,0,0,0-2.083-2.083h-6.062a11.952,11.952,0,0,1,3.916-6.932l11.845-10.323a2.082,2.082,0,0,0,.714-1.57V96.14A5.823,5.823,0,0,0,315.139,90.324Zm-6.68,83.341H275.136v-6.413h33.323Zm8.331-30.351-11.131,9.7a16.116,16.116,0,0,0-5.4,10.072h-16.8V145.065l16.1-17.774a3.709,3.709,0,0,1,5.332-.126,3.608,3.608,0,0,1,0,5.1l-9.491,9.49a2.083,2.083,0,1,0,2.946,2.945l9.49-9.49a7.78,7.78,0,0,0,.511-10.423V101.268a6.786,6.786,0,0,1,6.778-6.778,1.653,1.653,0,0,1,1.651,1.651v47.174Z" transform="translate(-214.739 -71.58)" fill="#fff"/><path d="M191.34,33.323c0-5.015-3.659-12.087-10.876-21.021A148.61,148.61,0,0,0,169.885.592a2.083,2.083,0,0,0-2.909,0A148.6,148.6,0,0,0,156.4,12.3c-7.216,8.934-10.876,16.007-10.876,21.021a23.358,23.358,0,0,0,20.827,22.81V66.645a2.083,2.083,0,1,0,4.165,0V56.133A23.359,23.359,0,0,0,191.34,33.323ZM170.513,51.938V47.177l8.2-3.618a2.083,2.083,0,0,0-1.681-3.811l-6.523,2.876V38.846l8.2-3.618a2.083,2.083,0,0,0-1.681-3.811l-6.523,2.876V30.515l8.2-3.617a2.083,2.083,0,0,0-1.681-3.811l-6.523,2.876V14.579a2.083,2.083,0,0,0-4.165,0V25.963l-6.523-2.876a2.083,2.083,0,0,0-1.681,3.811l8.2,3.617v3.778l-6.523-2.876a2.083,2.083,0,0,0-1.681,3.811l8.2,3.618v3.778l-6.523-2.876a2.083,2.083,0,0,0-1.681,3.811l8.2,3.618v4.762c-9.089-1.109-16.661-9.332-16.661-18.615,0-7.589,12.411-21.828,18.744-28.295,6.333,6.467,18.744,20.705,18.744,28.295,0,9.284-7.572,17.506-16.661,18.615" transform="translate(-115.323 0)" fill="#fff"/></g></svg>