<svg xmlns="http://www.w3.org/2000/svg" xmlns:xlink="http://www.w3.org/1999/xlink" width="107.35" height="113.242" viewBox="0 0 107.35 113.242"><defs><clipPath id="a"><rect width="107.35" height="113.242" transform="translate(-5 -5)" fill="#fff" stroke="#fff" stroke-width="2"/></clipPath></defs><g transform="translate(5 5)" clip-path="url(#a)"><path d="M185.559,175.4a29.993,29.993,0,0,1-13.084-3.628,1.518,1.518,0,0,1-.85-1.32c-.319-13.661,10.412-17.076,18.214-19.581,4.69-1.518,8.758-2.793,9.107-5.586a1.526,1.526,0,0,1,3.036.03c.091.85,1.776,20.855-8.439,27.822A13.812,13.812,0,0,1,185.559,175.4Zm-10.9-6.071c7.362,3.506,13.114,3.9,17.137,1.169,6.071-4.1,7.134-14.3,7.256-20.339a31.012,31.012,0,0,1-8.257,3.476c-7.483,2.459-15.922,5.146-16.135,15.771Z" transform="translate(-136.004 -114.063)" fill="#fff" stroke="#fff" stroke-width="2"/><path d="M151.54,252.442h-.349a1.518,1.518,0,0,1-1.123-1.821c4.235-17.971,21.569-17.319,21.751-17.319a1.519,1.519,0,0,1-.076,3.036A18.488,18.488,0,0,0,153.1,251.273,1.518,1.518,0,0,1,151.54,252.442Z" transform="translate(-118.894 -184.885)" fill="#fff" stroke="#fff" stroke-width="2"/><path d="M48.614,97.337A48.351,48.351,0,0,1,34.7,95.3a1.518,1.518,0,0,1,.865-2.9A45.536,45.536,0,1,0,6.721,66.6a1.52,1.52,0,0,1-2.793,1.2A48.663,48.663,0,1,1,48.614,97.337" transform="translate(0 0)" fill="#fff" stroke="#fff" stroke-width="2"/><path d="M93.537,130.545a36.9,36.9,0,1,1,10.625-72.25,1.518,1.518,0,0,1-.865,2.9,33.87,33.87,0,1,0,21.387,19.171,1.52,1.52,0,1,1,2.793-1.2,36.93,36.93,0,0,1-33.939,51.38" transform="translate(-44.923 -44.971)" fill="#fff" stroke="#fff" stroke-width="2"/><path d="M365.92,171.382a1.494,1.494,0,0,1-1.351-2.186l4.022-8.044a1.518,1.518,0,0,1,2.029-.7l0,0,8.045,4.022a1.521,1.521,0,0,1-1.366,2.717l-6.679-3.339-3.354,6.679A1.518,1.518,0,0,1,365.92,171.382Z" transform="translate(-288.786 -127.033)" fill="#fff" stroke="#fff" stroke-width="2"/><path d="M167.852,439.176a1.518,1.518,0,0,1-1.32-.789l-4.387-7.862a1.518,1.518,0,0,1,.591-2.064h0l7.878-4.356a1.53,1.53,0,0,1,1.518,2.656l-6.542,3.628,3.628,6.542a1.518,1.518,0,0,1-.591,2.064h0A1.622,1.622,0,0,1,167.852,439.176Z" transform="translate(-128.345 -335.934)" fill="#fff" stroke="#fff" stroke-width="2"/></g></svg>