<svg id="Group_248" data-name="Group 248" xmlns="http://www.w3.org/2000/svg" xmlns:xlink="http://www.w3.org/1999/xlink" width="325.821" height="98.921" viewBox="0 0 325.821 98.921">
  <defs>
    <clipPath id="clip-path">
      <rect id="Rectangle_340" data-name="Rectangle 340" width="325.821" height="98.921" fill="none"/>
    </clipPath>
    <clipPath id="clip-path-2">
      <path id="Path_172" data-name="Path 172" d="M122.985,62.224l.187.43a2.932,2.932,0,0,0,2.692,2.068h.234a2.985,2.985,0,0,0,2.692-2.068l.188-.431q-2.989.107-5.992,0m29.932-3.081a7.407,7.407,0,0,1-4.877,1.794,6.147,6.147,0,0,1-3.176-.831q-2.525.586-5.083,1.014a10.432,10.432,0,0,0,8.181,3.679,10.576,10.576,0,0,0,7.411-2.731A2.061,2.061,0,0,0,156,60.625a1.859,1.859,0,0,0-1.873-1.911,1.753,1.753,0,0,0-1.208.43M103.45,64.8a11.046,11.046,0,0,0,8.39-3.689q-2.743-.453-5.481-1.079a6.364,6.364,0,0,1-2.831.633,6.084,6.084,0,0,1-5.078-2.65q-2.811-.655-5.552-1.058A10.7,10.7,0,0,0,103.45,64.8M75.822,57.024q-1.994.347-3.907.855a10.47,10.47,0,0,0,10,6.921,10.087,10.087,0,0,0,7.491-2.925,1.843,1.843,0,0,0,.662-1.483,1.99,1.99,0,0,0-3.315-1.561,6.874,6.874,0,0,1-4.6,1.833,5.965,5.965,0,0,1-5.606-3.754c-.24.038-.482.072-.721.113m46.838,4.456q3.33.13,6.643,0l1.843-4.233q-2.241.047-4.473-.041l-.652,1.665-.671-1.728q-2.392-.133-4.766-.417Zm15.031-4.66a10.419,10.419,0,0,0,1.591,3.638q2.411-.392,4.794-.922A6.022,6.022,0,0,1,142.2,56.2q-2.257.371-4.514.615m-30.434,2.664q2.557.562,5.12.972a10.574,10.574,0,0,0,1.988-4.743q-2.318-.478-4.61-1.1a6.464,6.464,0,0,1-2.5,4.873M71.322,55.266a10.882,10.882,0,0,0,.368,1.914q2.253-.6,4.6-.977a7.477,7.477,0,0,1-.3-2.13v-.079c0-.179.008-.356.02-.532a44.985,44.985,0,0,0-4.684,1.8m55.641,1.2q2.3.077,4.517.018l1.427-3.277q-2.312,0-4.6-.156Zm26.2-2.834a83.927,83.927,0,0,1-8.237,2.081h10.1a2.207,2.207,0,0,0,2.224-2.262,10.724,10.724,0,0,0-.067-1.168c-1.287.468-2.629.921-4.02,1.349m-32.924,2.305q2.447.3,4.813.44l-1.485-3.821q-2.628-.37-5.22-.951Zm-27.71-1.861v.077a10.771,10.771,0,0,0,.195,2.038q2.581.371,5.222.957a7.014,7.014,0,0,1-.7-3.072v-.079a7.47,7.47,0,0,1,.338-2.246q-2.371-.33-4.7-.458a10.844,10.844,0,0,0-.361,2.783m59.613-3.6a7.9,7.9,0,0,1,.5,2.114H142.071l.005-.03q-2.118.288-4.225.449c-.139.011-.28.018-.42.027-.027.329-.041.662-.041,1v.078a12.32,12.32,0,0,0,.157,1.967,81.764,81.764,0,0,0,15.4-3.151c1.447-.444,2.824-.911,4.129-1.388a11.12,11.12,0,0,0-.7-2.366q-2.115.713-4.235,1.3M74.4,50.53c-1.058.539-2.053,1.115-2.984,1.707a11.243,11.243,0,0,0-.153,1.835v.077c0,.111,0,.221.007.332a46.042,46.042,0,0,1,4.833-1.823,6.623,6.623,0,0,1,2.1-3.8,37.616,37.616,0,0,0-3.8,1.676m35.362,3.324q2.366.65,4.684,1.128c.025-.3.041-.6.041-.91v-.079a10.789,10.789,0,0,0-.6-3.568c-.747-.224-1.493-.458-2.234-.709q-2.678-.909-5.292-1.574a6.564,6.564,0,0,1,3.4,5.711M82.659,47.477a6.714,6.714,0,0,1,3.7,1.718,2.406,2.406,0,0,0,1.4.469A2.143,2.143,0,0,0,89.632,46.4a41.728,41.728,0,0,0-6.973,1.081m10.449,3.092q2.348.133,4.743.476a5.921,5.921,0,0,1,5.485-3.6,56.473,56.473,0,0,0-7.59-1.048,10.622,10.622,0,0,0-2.638,4.174m22.925-4.807a3.671,3.671,0,0,0,.273,1.171l1.673,3.832q2.619.612,5.281,1l-2.546-6.553a2.391,2.391,0,0,0-4.681.545m15.37-.623-2.82,7.191q2.312.147,4.645.135l2.428-5.57a2.843,2.843,0,0,0,.273-1.132,2.248,2.248,0,0,0-2.3-2.261,2.35,2.35,0,0,0-2.224,1.638m-59.769,6.1c.753-.456,1.55-.905,2.4-1.339a40.085,40.085,0,0,1,14.974-4.187,10.435,10.435,0,0,0-7.014-2.4,10.572,10.572,0,0,0-10.359,7.929m24.877-5.517a63.983,63.983,0,0,1,15.379,3.3q.822.279,1.65.534a10.773,10.773,0,0,0-10.011-6.25,11.1,11.1,0,0,0-7.017,2.412m41,6.577.281-.018q2.2-.165,4.419-.478c.636-2.768,2.559-4.631,5.2-4.631a4.8,4.8,0,0,1,4.409,2.633q2.122-.586,4.239-1.3a9.271,9.271,0,0,0-8.61-5.2c-5.3,0-9.206,3.915-9.939,8.989" transform="translate(-71.266 -43.305)" fill="none"/>
    </clipPath>
    <linearGradient id="linear-gradient" x1="-0.635" y1="3.059" x2="-0.626" y2="3.059" gradientUnits="objectBoundingBox">
      <stop offset="0" stop-color="#3e6c3b"/>
      <stop offset="1" stop-color="#89bb2a"/>
    </linearGradient>
  </defs>
  <g id="Group_243" data-name="Group 243">
    <g id="Group_242" data-name="Group 242" clip-path="url(#clip-path)">
      <path id="Path_159" data-name="Path 159" d="M.284,86.622a3.225,3.225,0,0,1-.25-1.2,3.078,3.078,0,0,1,3.153-3A3.139,3.139,0,0,1,6.24,84.67L14.3,108.742,22.2,84.77a3.248,3.248,0,0,1,3.1-2.452h.45a3.2,3.2,0,0,1,3.1,2.452l7.907,23.972L44.825,84.62a3.139,3.139,0,0,1,3-2.2A3.013,3.013,0,0,1,50.88,85.37a3.532,3.532,0,0,1-.3,1.251L40.22,115.648a3.429,3.429,0,0,1-3.2,2.552h-.6a3.316,3.316,0,0,1-3.153-2.552L25.457,92.777,17.65,115.648a3.371,3.371,0,0,1-3.2,2.552h-.6a3.414,3.414,0,0,1-3.2-2.552Z" transform="translate(-0.008 -19.279)" fill="#fff"/>
      <path id="Path_160" data-name="Path 160" d="M80.624,114.7V85.878a3.055,3.055,0,0,1,3.1-3.1h20.368a2.777,2.777,0,0,1,2.753,2.752,2.744,2.744,0,0,1-2.753,2.752H86.779v9.108h15.063a2.788,2.788,0,0,1,2.753,2.8,2.734,2.734,0,0,1-2.753,2.7H86.779V112.3h17.566a2.777,2.777,0,0,1,2.752,2.752,2.744,2.744,0,0,1-2.752,2.753H83.727a3.056,3.056,0,0,1-3.1-3.1" transform="translate(-18.882 -19.386)" fill="#fff"/>
      <path id="Path_161" data-name="Path 161" d="M140.384,88.48h-8.508a2.853,2.853,0,0,1,0-5.705h23.271a2.853,2.853,0,0,1,0,5.705h-8.558V115a3.1,3.1,0,0,1-6.205,0Z" transform="translate(-30.218 -19.386)" fill="#fff"/>
      <path id="Path_162" data-name="Path 162" d="M181.182,85.5a3.078,3.078,0,0,1,6.155,0v26.624H203.2a2.8,2.8,0,1,1,0,5.606H184.285a3.056,3.056,0,0,1-3.1-3.1Z" transform="translate(-42.433 -19.31)" fill="#fff"/>
      <path id="Path_163" data-name="Path 163" d="M223.2,113.651l13.012-29.027a3.9,3.9,0,0,1,3.7-2.5h.3a3.839,3.839,0,0,1,3.653,2.5l13.012,29.027a2.676,2.676,0,0,1,.35,1.3,2.884,2.884,0,0,1-2.9,2.953,3.172,3.172,0,0,1-3-2.152l-2.852-6.556H231.457l-2.952,6.757a2.962,2.962,0,0,1-2.853,1.951,2.82,2.82,0,0,1-2.853-2.853,3.155,3.155,0,0,1,.4-1.4m22.921-9.909-6.155-14.163-6.155,14.163Z" transform="translate(-52.18 -19.233)" fill="#fff"/>
      <path id="Path_164" data-name="Path 164" d="M281.163,85.6a3.086,3.086,0,0,1,3.1-3.1h.651a3.875,3.875,0,0,1,3.2,1.8l17.516,22.67V85.452a3.028,3.028,0,0,1,6.055,0v29.427a2.991,2.991,0,0,1-3,3.052h-.25a3.873,3.873,0,0,1-3.2-1.852L287.219,92.758v22.22a3.028,3.028,0,0,1-6.056,0Z" transform="translate(-65.849 -19.31)" fill="#fff"/>
      <path id="Path_165" data-name="Path 165" d="M338.714,85.878a3.055,3.055,0,0,1,3.1-3.1h9.959c11.01,0,18.617,7.557,18.617,17.416v.1c0,9.859-7.607,17.516-18.617,17.516h-9.959a3.055,3.055,0,0,1-3.1-3.1ZM351.775,112.2c7.357,0,12.162-4.954,12.162-11.811v-.1c0-6.856-4.8-11.91-12.162-11.91H344.87V112.2Z" transform="translate(-79.327 -19.386)" fill="#fff"/>
      <path id="Path_166" data-name="Path 166" d="M391.575,113.75a2.87,2.87,0,0,1,1.7-5.205,2.851,2.851,0,0,1,1.8.551,15.194,15.194,0,0,0,9.809,3.6c3.8,0,6.205-1.8,6.205-4.4v-.1c0-2.5-1.4-3.854-7.907-5.355-7.457-1.8-11.661-4-11.661-10.459v-.1c0-6.005,5.005-10.159,11.961-10.159a19.273,19.273,0,0,1,11.11,3.253,2.779,2.779,0,0,1,1.352,2.452,2.863,2.863,0,0,1-2.9,2.853,2.977,2.977,0,0,1-1.6-.45,14.572,14.572,0,0,0-8.057-2.653c-3.6,0-5.706,1.852-5.706,4.154v.1c0,2.7,1.6,3.9,8.358,5.5,7.407,1.8,11.21,4.454,11.21,10.259v.1c0,6.557-5.155,10.46-12.511,10.46a21.809,21.809,0,0,1-13.162-4.4" transform="translate(-91.426 -19.233)" fill="#fff"/>
      <path id="Path_167" data-name="Path 167" d="M21.335,59.847a2.36,2.36,0,0,1-4.72,0V58.56a8.246,8.246,0,0,1-7.022,3.862C4.755,62.422.034,58.56.034,51.733v-.078c0-6.827,4.642-10.689,9.558-10.689a8.427,8.427,0,0,1,7.022,3.628V35.66a2.36,2.36,0,0,1,4.72,0ZM4.793,51.655v.078c0,3.979,2.731,6.593,5.93,6.593,3.16,0,5.969-2.653,5.969-6.593v-.078c0-3.979-2.809-6.593-5.969-6.593-3.238,0-5.93,2.5-5.93,6.593" transform="translate(-0.008 -7.804)" fill="#fff"/>
      <path id="Path_168" data-name="Path 168" d="M34.217,35.927a2.416,2.416,0,0,1,2.693-2.3,2.415,2.415,0,0,1,2.692,2.3v.234A2.444,2.444,0,0,1,36.91,38.5a2.444,2.444,0,0,1-2.693-2.341Zm.352,7.685a2.332,2.332,0,0,1,2.341-2.379,2.364,2.364,0,0,1,2.379,2.379V59.919a2.36,2.36,0,0,1-4.72,0Z" transform="translate(-8.014 -7.875)" fill="#fff"/>
      <path id="Path_169" data-name="Path 169" d="M46.324,62.288a1.808,1.808,0,0,1-.9-1.638,1.891,1.891,0,0,1,1.912-1.912,2.056,2.056,0,0,1,1.014.273A10.873,10.873,0,0,0,54.282,61c2.029,0,3.2-.858,3.2-2.223V58.7c0-1.6-2.184-2.145-4.6-2.886-3.043-.858-6.437-2.107-6.437-6.047v-.078c0-3.9,3.238-6.281,7.334-6.281a14.155,14.155,0,0,1,6.476,1.678,2,2,0,0,1,1.131,1.794,1.9,1.9,0,0,1-1.95,1.911,1.853,1.853,0,0,1-.937-.234,11.239,11.239,0,0,0-4.838-1.4c-1.833,0-2.886.858-2.886,2.029v.078c0,1.521,2.223,2.145,4.642,2.925,3,.937,6.4,2.3,6.4,6.008v.078c0,4.331-3.356,6.476-7.646,6.476a14.076,14.076,0,0,1-7.842-2.457" transform="translate(-10.639 -10.166)" fill="#fff"/>
      <path id="Path_170" data-name="Path 170" d="M189.061,45.926a2.332,2.332,0,0,1,2.341-2.379,2.364,2.364,0,0,1,2.379,2.379v2.107c1.093-2.575,3.121-4.525,5.188-4.525a2.191,2.191,0,0,1,2.341,2.34,2.215,2.215,0,0,1-1.872,2.263c-3.355.585-5.657,3.16-5.657,8.036v6.086a2.357,2.357,0,0,1-2.379,2.341,2.323,2.323,0,0,1-2.341-2.341Z" transform="translate(-44.278 -10.19)" fill="#fff"/>
      <path id="Path_171" data-name="Path 171" d="M210.026,70.164a2.011,2.011,0,0,1-1.483-1.95,1.9,1.9,0,0,1,1.911-1.95,2.406,2.406,0,0,1,.858.156,5.351,5.351,0,0,0,1.639.273c1.4,0,2.145-.585,2.926-2.185l.155-.429-7.646-17.086a3.171,3.171,0,0,1-.273-1.132,2.266,2.266,0,0,1,2.34-2.3,2.369,2.369,0,0,1,2.3,1.794l5.54,13.692,5.149-13.692a2.422,2.422,0,0,1,2.263-1.794,2.231,2.231,0,0,1,2.263,2.223,4.231,4.231,0,0,1-.2,1.132l-7.529,18.062c-1.755,4.213-3.628,5.773-6.944,5.773a8.331,8.331,0,0,1-3.277-.585" transform="translate(-48.741 -10.202)" fill="#fff"/>
    </g>
  </g>
  <g id="Group_245" data-name="Group 245" transform="translate(54.575 33.163)">
    <g id="Group_244" data-name="Group 244" clip-path="url(#clip-path-2)">
      <rect id="Rectangle_341" data-name="Rectangle 341" width="85.981" height="21.494" transform="translate(0 0)" fill="url(#linear-gradient)"/>
    </g>
  </g>
  <g id="Group_247" data-name="Group 247">
    <g id="Group_246" data-name="Group 246" clip-path="url(#clip-path)">
      <path id="Path_173" data-name="Path 173" d="M0,3.064A1.737,1.737,0,0,1,1.764,1.3h6.09c4.666,0,7.568,2.647,7.568,6.658v.057c0,4.467-3.585,6.8-7.967,6.8H3.5v4.808a1.724,1.724,0,0,1-1.736,1.735A1.73,1.73,0,0,1,0,19.624Zm7.568,8.593c2.647,0,4.3-1.48,4.3-3.557V8.044c0-2.333-1.679-3.556-4.3-3.556H3.5v7.17Z" transform="translate(0 -0.304)" fill="#fff"/>
      <path id="Path_174" data-name="Path 174" d="M22.629,18.329v-.057c0-3.244,2.532-4.838,6.2-4.838a12.533,12.533,0,0,1,4.041.626v-.371c0-2.134-1.31-3.271-3.728-3.271a8.922,8.922,0,0,0-3.329.6,1.943,1.943,0,0,1-.541.086A1.434,1.434,0,0,1,23.824,9.68a1.5,1.5,0,0,1,.939-1.366A12.88,12.88,0,0,1,29.6,7.432a6.732,6.732,0,0,1,4.979,1.679A6.234,6.234,0,0,1,36.2,13.748v7.4a1.64,1.64,0,0,1-1.679,1.65,1.556,1.556,0,0,1-1.679-1.45v-.57a6.1,6.1,0,0,1-4.893,2.191c-2.817,0-5.321-1.621-5.321-4.638m10.3-1.081V16.224a9.54,9.54,0,0,0-3.414-.6c-2.22,0-3.529.939-3.529,2.5v.057c0,1.451,1.28,2.277,2.931,2.277,2.276,0,4.012-1.31,4.012-3.216" transform="translate(-5.3 -1.741)" fill="#fff"/>
      <path id="Path_175" data-name="Path 175" d="M45.276,26.873a1.467,1.467,0,0,1-1.081-1.423,1.385,1.385,0,0,1,1.395-1.422,1.763,1.763,0,0,1,.626.113,3.887,3.887,0,0,0,1.2.2c1.025,0,1.565-.427,2.134-1.594l.114-.312L44.08,9.972a2.338,2.338,0,0,1-.2-.826,1.653,1.653,0,0,1,1.707-1.679,1.727,1.727,0,0,1,1.679,1.309l4.04,9.988,3.755-9.988a1.767,1.767,0,0,1,1.651-1.309,1.627,1.627,0,0,1,1.65,1.622,3.1,3.1,0,0,1-.142.825L52.731,23.089c-1.28,3.073-2.647,4.211-5.065,4.211a6.076,6.076,0,0,1-2.39-.427" transform="translate(-10.277 -1.749)" fill="#fff"/>
      <path id="Path_176" data-name="Path 176" d="M65.209,18.329v-.057c0-3.244,2.532-4.838,6.2-4.838a12.533,12.533,0,0,1,4.041.626v-.371c0-2.134-1.31-3.271-3.728-3.271a8.922,8.922,0,0,0-3.329.6,1.943,1.943,0,0,1-.541.086A1.434,1.434,0,0,1,66.4,9.68a1.5,1.5,0,0,1,.939-1.366,12.88,12.88,0,0,1,4.838-.881,6.732,6.732,0,0,1,4.979,1.679,6.234,6.234,0,0,1,1.622,4.638v7.4A1.64,1.64,0,0,1,77.1,22.8a1.555,1.555,0,0,1-1.679-1.45v-.57a6.107,6.107,0,0,1-4.894,2.191c-2.817,0-5.321-1.621-5.321-4.638m10.3-1.081V16.224a9.54,9.54,0,0,0-3.414-.6c-2.22,0-3.529.939-3.529,2.5v.057c0,1.451,1.28,2.277,2.931,2.277,2.276,0,4.012-1.31,4.012-3.216" transform="translate(-15.272 -1.741)" fill="#fff"/>
      <path id="Path_177" data-name="Path 177" d="M100.246,2.851a1.75,1.75,0,0,1,3.5,0v16.73a1.75,1.75,0,0,1-3.5,0Z" transform="translate(-23.478 -0.261)" fill="#fff"/>
      <path id="Path_178" data-name="Path 178" d="M111.243,9.161a1.7,1.7,0,0,1,1.707-1.736,1.724,1.724,0,0,1,1.736,1.736V9.9a5.445,5.445,0,0,1,4.694-2.618c3.386,0,5.35,2.277,5.35,5.748v8.024a1.677,1.677,0,0,1-1.708,1.707,1.7,1.7,0,0,1-1.735-1.707V14.083c0-2.333-1.167-3.67-3.216-3.67-1.992,0-3.386,1.394-3.386,3.727v6.914a1.722,1.722,0,0,1-3.443,0Z" transform="translate(-26.053 -1.705)" fill="#fff"/>
      <path id="Path_179" data-name="Path 179" d="M148.813,19.349a1.722,1.722,0,0,1-3.443,0V18.41a6.014,6.014,0,0,1-5.122,2.817c-3.528,0-6.971-2.817-6.971-7.8v-.057c0-4.979,3.386-7.8,6.971-7.8a6.145,6.145,0,0,1,5.122,2.647V1.708a1.722,1.722,0,0,1,3.443,0Zm-12.064-5.976v.057c0,2.9,1.992,4.809,4.324,4.809a4.527,4.527,0,0,0,4.354-4.809v-.057a4.509,4.509,0,0,0-4.354-4.808c-2.362,0-4.324,1.821-4.324,4.808" transform="translate(-31.214 0)" fill="#fff"/>
      <path id="Path_180" data-name="Path 180" d="M157.911,18.329v-.057c0-3.244,2.532-4.838,6.2-4.838a12.533,12.533,0,0,1,4.041.626v-.371c0-2.134-1.31-3.271-3.728-3.271a8.922,8.922,0,0,0-3.329.6,1.943,1.943,0,0,1-.541.086,1.434,1.434,0,0,1-1.451-1.423,1.5,1.5,0,0,1,.939-1.366,12.88,12.88,0,0,1,4.838-.881,6.732,6.732,0,0,1,4.979,1.679,6.234,6.234,0,0,1,1.622,4.638v7.4A1.64,1.64,0,0,1,169.8,22.8a1.556,1.556,0,0,1-1.679-1.45v-.57a6.1,6.1,0,0,1-4.893,2.191c-2.817,0-5.321-1.621-5.321-4.638m10.3-1.081V16.224a9.54,9.54,0,0,0-3.414-.6c-2.22,0-3.529.939-3.529,2.5v.057c0,1.451,1.28,2.277,2.931,2.277,2.276,0,4.012-1.31,4.012-3.216" transform="translate(-36.983 -1.741)" fill="#fff"/>
      <path id="Path_181" data-name="Path 181" d="M181.021,1.708A1.694,1.694,0,0,1,182.728,0a1.718,1.718,0,0,1,1.736,1.707V8.2a5.444,5.444,0,0,1,4.694-2.618c3.386,0,5.35,2.276,5.35,5.747v8.024a1.677,1.677,0,0,1-1.708,1.707,1.7,1.7,0,0,1-1.735-1.707V12.378c0-2.333-1.167-3.67-3.216-3.67-1.992,0-3.386,1.394-3.386,3.727v6.914a1.722,1.722,0,0,1-3.443,0Z" transform="translate(-42.395 0)" fill="#fff"/>
    </g>
  </g>
</svg>
